PathFileType	4	(X/Y/Z)	/Users/itak/Documents/Research/Walk-IL/dataset/trc/00169_00008.trc
DataRate	CameraRate	NumFrames	NumMarkers	Units	OrigDataRate	OrigDataStartFrame	OrigNumFrames
100.000000	100.000000	4	54	mm	100.000000	344	551
Frame#	Time	RPSI			LPSI			L3			STRN			T10			C7			CLAV			RBAK			LBAK			LSHO			LUPA			LAEL			LAOL			LWTS			LWPS			LFRA			LIFD			LHPS			LHTS			RSHO			RUPA			RAEL			RAOL			RWTS			RWPS			RFRA			RIFD			RHTS			RHPS			RBHD			LFHD			RFHD			LBHD			LHIP			RHIP			RASI			LASI			LKNE			LTHI			LANK			LTIP			LTOE			LMT1			LMT5			LHEE			RKNE			RTHI			RANK			RTIP			RTOE			RMT1			RMT5			RHEE			*53			
		X1	Y1	Z1	X2	Y2	Z2	X3	Y3	Z3	X4	Y4	Z4	X5	Y5	Z5	X6	Y6	Z6	X7	Y7	Z7	X8	Y8	Z8	X9	Y9	Z9	X10	Y10	Z10	X11	Y11	Z11	X12	Y12	Z12	X13	Y13	Z13	X14	Y14	Z14	X15	Y15	Z15	X16	Y16	Z16	X17	Y17	Z17	X18	Y18	Z18	X19	Y19	Z19	X20	Y20	Z20	X21	Y21	Z21	X22	Y22	Z22	X23	Y23	Z23	X24	Y24	Z24	X25	Y25	Z25	X26	Y26	Z26	X27	Y27	Z27	X28	Y28	Z28	X29	Y29	Z29	X30	Y30	Z30	X31	Y31	Z31	X32	Y32	Z32	X33	Y33	Z33	X34	Y34	Z34	X35	Y35	Z35	X36	Y36	Z36	X37	Y37	Z37	X38	Y38	Z38	X39	Y39	Z39	X40	Y40	Z40	X41	Y41	Z41	X42	Y42	Z42	X43	Y43	Z43	X44	Y44	Z44	X45	Y45	Z45	X46	Y46	Z46	X47	Y47	Z47	X48	Y48	Z48	X49	Y49	Z49	X50	Y50	Z50	X51	Y51	Z51	X52	Y52	Z52	X53	Y53	Z53	X54	Y54	Z54	

345	3.44	-681.3734741210938	1061.845092773438	241.4968414306641	-691.5716552734375	1063.19921875	119.0306930541992	-682.6434326171875	1103.351806640625	183.1380157470703	-416.4063110351562	1299.213256835938	133.2640075683594	-705.576904296875	1259.333374023438	172.4764404296875	-638.333251953125	1525.448608398438	133.9597778320312	-443.340087890625	1412.426635742188	118.2570343017578	-693.7749633789062	1360.03173828125	262.4964904785156	-659.0010375976562	1493.570922851562	37.15610122680664	-595.0660400390625	1473.5146484375	-49.12463760375977	-646.9144897460938	1344.280029296875	-113.9934310913086	-655.8491821289062	1131.725708007812	-138.8973846435547	-680.8276977539062	1113.740966796875	-55.41316223144531	-561.2615966796875	892.6847534179688	-157.2648468017578	-653.154296875	879.4293212890625	-167.9359130859375	-656.3153076171875	1022.395385742188	-161.1991271972656	-552.8094482421875	706.5838623046875	-151.7229919433594	-636.9527587890625	808.4274291992188	-175.1957397460938	-564.3857421875	815.6297607421875	-184.3353576660156	-552.799560546875	1513.594848632812	305.5404357910156	-565.032470703125	1452.204956054688	380.6524353027344	-579.109130859375	1170.938110351562	462.0038757324219	-593.5617065429688	1154.122802734375	365.7411193847656	-432.4053955078125	949.37548828125	448.6137084960938	-501.3645324707031	931.7901611328125	502.0184936523438	-550.3567504882812	1100.731323242188	483.5730590820312	-413.4186401367188	764.0239868164062	431.0611267089844	-400.1666564941406	857.9562377929688	461.6401977539062	-470.5803527832031	849.9490356445312	502.6276550292969	-569.1484985351562	1691.781005859375	182.6023101806641	-415.7722778320312	1719.837646484375	31.44292449951172	-401.618408203125	1731.104248046875	160.0784912109375	-591.2896118164062	1687.758056640625	46.14337158203125	-598.6370849609375	1005.393493652344	-9.300601005554199	-525.69482421875	1007.123168945312	357.0906372070312	-448.8490295410156	1039.067138671875	296.3892211914062	-468.4544372558594	1036.255615234375	39.04801559448242	-471.4474792480469	509.7386779785156	16.66988182067871	-504.8937072753906	651.1021728515625	-9.704522132873535	-530.1458129882812	31.72865676879883	30.42685508728027	-499.4810791015625	277.3427734375	11.47064781188965	-323.6589660644531	77.28902435302734	38.61708831787109	-363.2148742675781	69.43094635009766	91.60741424560547	-422.1653747558594	30.0702018737793	-11.36339378356934	-578.7715454101562	38.72315979003906	104.0725326538086	-518.2839965820312	501.2943725585938	358.9463806152344	-477.6405334472656	775.7747192382812	363.549072265625	-846.5234375	114.6220474243164	383.0792541503906	-565.217041015625	381.46630859375	356.4318542480469	-638.5503540039062	47.42426681518555	359.1183776855469	-688.1578369140625	59.4453125	311.3682556152344	-748.1929931640625	63.24472427368164	419.4972534179688	-887.8150634765625	139.3786010742188	311.8577575683594	nan	nan	nan	
346	3.45	-686.7103881835938	1061.185302734375	243.5175018310547	-696.9903564453125	1062.761596679688	121.0302963256836	-688.0457763671875	1102.741088867188	185.3745727539062	-422.3755493164062	1299.063110351562	135.4733276367188	-711.3845825195312	1258.4228515625	175.3071441650391	-644.9238891601562	1524.711181640625	136.6951599121094	-449.6384887695312	1412.199340820312	120.4831390380859	-699.5789794921875	1359.15234375	265.3974609375	-665.7551879882812	1492.772827148438	40.00081634521484	-602.1119995117188	1472.86083984375	-46.44805526733398	-654.1965942382812	1343.678955078125	-111.1481094360352	-663.3685302734375	1131.1357421875	-135.9092102050781	-687.895263671875	1113.161987304688	-52.26252746582031	-568.42236328125	892.2466430664062	-154.7213439941406	-660.2988891601562	878.7846069335938	-164.9611663818359	-663.7750244140625	1021.762512207031	-158.1978149414062	-559.4666748046875	706.1808471679688	-149.1021728515625	-643.9746704101562	807.8130493164062	-172.2712860107422	-571.459716796875	815.1864013671875	-181.7310028076172	-558.9962768554688	1513.210083007812	307.9799499511719	-570.8394165039062	1451.834350585938	383.2003173828125	-583.9371337890625	1170.57568359375	464.7692260742188	-598.7216186523438	1153.697021484375	368.5010681152344	-436.5823364257812	949.4649047851562	450.9217529296875	-505.291748046875	931.6582641601562	504.5360107421875	-554.8736572265625	1100.445434570312	486.2672119140625	-417.0559997558594	764.1557006835938	433.4473266601562	-403.9947509765625	858.1685791015625	463.9056701660156	-474.2871704101562	849.9556274414062	505.1095886230469	-575.2459106445312	1691.86279296875	184.2531890869141	-422.8371887207031	1718.583374023438	31.89171409606934	-407.8396301269531	1730.867797851562	160.3387908935547	-598.2738037109375	1686.78076171875	47.99239730834961	-603.8021240234375	1005.564147949219	-7.47684907913208	-531.0534057617188	1006.093444824219	359.0413818359375	-454.2059020996094	1038.266967773438	298.4390258789062	-473.6868896484375	1036.23974609375	41.23128509521484	-474.2240600585938	510.1674499511719	17.75760078430176	-508.3995666503906	651.4025268554688	-8.52039623260498	-530.2086181640625	31.73586082458496	30.41472816467285	-500.8663330078125	277.6116638183594	11.93121147155762	-323.9001770019531	77.93739318847656	38.40702056884766	-363.3893737792969	69.86389923095703	91.52113342285156	-422.2823486328125	30.31731414794922	-11.32175827026367	-578.8477172851562	38.65014266967773	104.0581970214844	-530.8244018554688	500.6968994140625	361.0341796875	-485.7525329589844	774.4418334960938	365.53271484375	-857.4071655273438	111.2256622314453	383.1969299316406	-577.6494140625	380.7665405273438	358.442138671875	-649.8073120117188	45.14507293701172	358.4853210449219	-699.0213012695312	57.12974548339844	310.8687133789062	-759.3380126953125	58.88218688964844	418.9585571289062	-898.3836669921875	137.261474609375	312.1783752441406	nan	nan	nan	
347	3.46	-692.16064453125	1060.511108398438	245.5886383056641	-702.4921875	1062.314819335938	123.0758285522461	-693.5401000976562	1102.11572265625	187.6605224609375	-428.3654174804688	1298.827026367188	137.8235626220703	-717.2433471679688	1257.485595703125	178.1884765625	-651.4832153320312	1523.923706054688	139.5025177001953	-455.9273376464844	1411.895263671875	122.852165222168	-705.436767578125	1358.246337890625	268.3453674316406	-672.4505004882812	1491.933715820312	42.90525817871094	-609.0670776367188	1472.160522460938	-43.68184661865234	-661.3473510742188	1343.00439453125	-108.2076644897461	-670.6805419921875	1130.473022460938	-132.8007354736328	-694.7798461914062	1112.509521484375	-48.99929046630859	-575.4191284179688	891.7127075195312	-152.0171966552734	-667.2704467773438	878.0756225585938	-161.8498382568359	-671.0225219726562	1021.0625	-155.06689453125	-566.0222778320312	705.68408203125	-146.2970123291016	-650.8383178710938	807.1310424804688	-169.2001647949219	-578.3759765625	814.6494140625	-178.9504241943359	-565.2247924804688	1512.7666015625	310.529296875	-576.743408203125	1451.411010742188	385.8472900390625	-588.943359375	1170.126831054688	467.5935974121094	-603.9827270507812	1153.216796875	371.3197631835938	-440.7740173339844	949.5792846679688	453.2433471679688	-509.2611389160156	931.44384765625	506.9794006347656	-559.549072265625	1100.061767578125	488.9965515136719	-420.4961547851562	764.364013671875	435.6792907714844	-407.7424926757812	858.4373779296875	466.1226196289062	-477.9490661621094	849.9097290039062	507.4654846191406	-581.3527221679688	1691.854614257812	186.0263061523438	-429.9249267578125	1717.285278320312	32.47685623168945	-414.0819091796875	1730.575317382812	160.7206726074219	-605.2736206054688	1685.726440429688	49.97872161865234	-609.044189453125	1005.690551757812	-5.578119277954102	-536.5559692382812	1005.023986816406	361.0713500976562	-459.6903991699219	1037.384155273438	300.5697326660156	-478.987548828125	1036.160400390625	43.4908561706543	-477.0193481445312	510.5803527832031	18.97972106933594	-511.8905029296875	651.6812133789062	-7.225016593933105	-530.2722778320312	31.78089141845703	30.42646980285645	-502.2131958007812	277.88232421875	12.48172569274902	-324.0853881835938	78.54119110107422	38.26657104492188	-363.5090637207031	70.2530517578125	91.49739074707031	-422.3963623046875	30.61413764953613	-11.25450611114502	-578.8727416992188	38.55845642089844	104.0879364013672	-543.2526245117188	500.1397399902344	363.1352844238281	-493.9114074707031	773.103271484375	367.5703735351562	-867.341796875	107.2529296875	383.2932739257812	-589.7972412109375	380.0708312988281	360.4685974121094	-659.9314575195312	43.38542938232422	357.6014404296875	-708.8104248046875	54.97603988647461	310.21728515625	-769.2630615234375	54.46619033813477	418.3692626953125	-908.17431640625	134.4241638183594	312.4987487792969	nan	nan	nan	
348	3.47	-697.7360229492188	1059.820556640625	247.7119598388672	-708.0846557617188	1061.8623046875	125.1730804443359	-699.1412353515625	1101.478393554688	189.9993133544922	-434.3766479492188	1298.492919921875	140.3153991699219	-723.1591796875	1256.525024414062	181.1160583496094	-658.0055541992188	1523.088989257812	142.3768310546875	-462.2058715820312	1411.500854492188	125.3603820800781	-711.3587646484375	1357.316650390625	271.3359680175781	-679.081787109375	1491.0556640625	45.86252212524414	-615.9213256835938	1471.404174804688	-40.8340950012207	-668.3590698242188	1342.243408203125	-105.1750564575195	-677.7897338867188	1129.725219726562	-129.5732116699219	-701.4800415039062	1111.772705078125	-45.62631988525391	-582.246826171875	891.080078125	-149.1624603271484	-674.07373046875	877.2893676757812	-158.5994262695312	-678.06640625	1020.282165527344	-151.8083648681641	-572.4649047851562	705.0867309570312	-143.32568359375	-657.5481567382812	806.3698120117188	-165.9846496582031	-585.1370239257812	814.0123291015625	-176.0052032470703	-571.4777221679688	1512.257568359375	313.1875610351562	-582.7341918945312	1450.923583984375	388.592529296875	-594.1134643554688	1169.58251953125	470.4863586425781	-609.3460083007812	1152.66845703125	374.2077331542969	-444.9860229492188	949.697265625	455.5619201660156	-513.2645263671875	931.1403198242188	509.357421875	-564.3689575195312	1099.571411132812	491.76611328125	-423.7710266113281	764.6281127929688	437.7476196289062	-411.4255065917969	858.7431640625	468.2751159667969	-481.5638427734375	849.799072265625	509.7009887695312	-587.4662475585938	1691.751220703125	187.9226226806641	-437.0265197753906	1715.944580078125	33.19928741455078	-420.340576171875	1730.2255859375	161.2258148193359	-612.277587890625	1684.593383789062	52.09916687011719	-614.3623046875	1005.780578613281	-3.601646661758423	-542.220458984375	1003.899475097656	363.18896484375	-465.3170471191406	1036.409301757812	302.8006286621094	-484.3640441894531	1036.0146484375	45.83747100830078	-479.8631286621094	510.9803161621094	20.30934524536133	-515.3936767578125	651.945556640625	-5.836413383483887	-530.3408813476562	31.8512020111084	30.45171356201172	-503.5486450195312	278.156982421875	13.1019868850708	-324.2402038574219	79.13711547851562	38.1685905456543	-363.5922546386719	70.63471984863281	91.51084899902344	-422.5215148925781	30.9434757232666	-11.17231178283691	-578.8589477539062	38.44169235229492	104.1508865356445	-555.540771484375	499.5956726074219	365.2205505371094	-502.1438293457031	771.74267578125	369.6771850585938	-876.2337646484375	102.7561874389648	383.4233703613281	-601.6129150390625	379.34912109375	362.4683227539062	-668.7810668945312	42.19692230224609	356.5372314453125	-717.4197998046875	53.08669662475586	309.4783630371094	-777.8123779296875	50.18886947631836	417.8193664550781	-917.1563110351562	130.80712890625	312.8580932617188	nan	nan	nan	
